<svg width="131px" height="125px" viewBox="0 0 131 125" version="1.1" xmlns="http://www.w3.org/2000/svg" xmlns:xlink="http://www.w3.org/1999/xlink">
    <!-- Generator: Sketch 50.2 (55047) - http://www.bohemiancoding.com/sketch -->
    <desc>Created with Sketch.</desc>
    <defs></defs>
    <g id="Page-1" stroke="none" stroke-width="1" fill="none" fill-rule="evenodd">
        <g id="HOME" transform="translate(-159.000000, -51.000000)" fill-rule="nonzero">
            <g id="LOGO_ILEK" transform="translate(159.000000, 51.000000)">
                <g id="logo-copy">
                    <path d="M70.8990927,55.0140041 C65.6276727,54.7833626 60.7010191,57.4175609 58.3209461,61.7393261 C57.8374451,62.6600465 57.9036845,63.7441545 58.4963162,64.6095211 C59.0889479,65.4748878 60.1247608,66.0000075 61.2386491,65.9997849 L79.7589471,65.9997849 C80.8391181,66.0117576 81.8530699,65.5232544 82.4555912,64.7005918 C83.0581125,63.8779292 83.1679896,62.8319936 82.7478136,61.9188856 C80.7227393,57.5997312 76.0208256,54.8596753 70.8990927,55.0140041 Z" id="Shape" fill="#FFCF00"></path>
                    <path d="M70.4881015,0.0322798387 C40.3141768,-0.932321393 13.7657946,19.8179683 7.40825663,49.3356629 C1.05071865,78.8533575 16.7023622,108.696018 44.5970857,120.242824 C72.4918091,131.789629 104.651364,121.738046 121.009265,96.3599243 C122.374591,94.2533257 122.155938,91.4923391 120.476061,89.6269886 L108.362312,76.5277622 C107.513299,75.6226072 106.19663,75.329955 105.04423,75.7902621 C103.891831,76.2505691 103.13894,77.3698736 103.146901,78.6109725 L103.146901,86.3938462 C103.146901,88.069011 101.789159,89.4270004 100.114299,89.4270004 L99.3978045,89.4270004 C98.5921482,89.4314648 97.8181976,89.1133351 97.2485038,88.5435377 C96.67881,87.9737403 96.3607381,87.199649 96.3652017,86.3938462 L96.3652017,37.913376 C96.3651894,37.1104576 96.6852256,36.3406655 97.2544331,35.7744826 C97.8236405,35.2082998 98.5950443,34.8924515 99.3978045,34.8968875 L100.114299,34.8968875 C101.782673,34.8968623 103.137735,36.2447232 103.146901,37.913376 L103.146901,63.5285299 C103.092089,64.2534752 103.51345,64.9303048 104.188081,65.2009686 C104.862712,65.4716325 105.634917,65.2736651 106.096191,64.7117934 L118.993084,51.3792474 C119.566477,50.7905459 120.354178,50.4597717 121.175892,50.4626349 C122.394148,50.4650753 123.492684,51.1964244 123.965113,52.3195553 C124.437541,53.4426862 124.192143,54.7395476 123.342037,55.6123308 L111.961445,67.2783085 C110.825054,68.4539912 110.825054,70.3190434 111.961445,71.4947261 L122.60888,82.9607156 C123.392061,83.7873631 124.555503,84.1353795 125.663861,83.8745419 C126.77222,83.6137043 127.658442,82.7833261 127.990917,81.6941238 C134.00713,63.0057133 130.898155,42.5762083 119.595155,26.5244051 C108.292154,10.4726019 90.1076714,0.662491981 70.4881015,0.0322798387 Z M30.1144933,86.3938462 C30.1239913,88.0405914 28.8112755,89.390635 27.1652037,89.4270004 L26.4320469,89.4270004 C25.6292745,89.4270127 24.8596223,89.1069183 24.2935424,88.5376073 C23.7274624,87.9682964 23.4116715,87.1967523 23.4161067,86.3938462 L23.4161067,53.4957891 C23.4161067,51.8298285 24.7663892,50.4793006 26.4320469,50.4793006 L27.1652037,50.4793006 C28.8308615,50.4793006 30.1811439,51.8298285 30.1811439,53.4957891 L30.1144933,86.3938462 Z M44.1111218,86.3938462 C44.1111218,88.069011 42.7533793,89.4270004 41.0785189,89.4270004 L40.3620249,89.4270004 C39.5563685,89.4314648 38.782418,89.1133351 38.2127242,88.5435377 C37.6430303,87.9737403 37.3249584,87.199649 37.329422,86.3938462 L37.329422,36.3967989 C37.3249584,35.5909961 37.6430303,34.8169048 38.2127242,34.2471074 C38.782418,33.6773101 39.5563685,33.3591803 40.3620249,33.3636447 L41.0785189,33.3636447 C42.7533793,33.3636447 44.1111218,34.7216341 44.1111218,36.3967989 L44.1111218,86.3938462 Z M89.9834056,70.0281461 C89.9742987,71.6995235 88.6218763,73.0521917 86.9508027,73.0613003 L61.773534,73.0613003 C60.7151735,73.06395 59.7347568,73.6182747 59.1867332,74.5238696 C58.6387096,75.4294645 58.602368,76.5553069 59.0908469,77.4943718 C61.4266284,81.886055 66.0869568,84.5347453 71.0546317,84.2939702 C74.8132333,84.4210851 78.4144806,82.7804927 80.7856211,79.8608987 C81.3625184,79.0740299 82.2761741,78.60477 83.2516937,78.5943068 L83.8182239,78.5943068 C84.9285972,78.6326691 85.9291042,79.2752642 86.4259744,80.2691853 C86.9228446,81.2631063 86.836523,82.4492145 86.2009833,83.360692 C82.5352741,87.9913265 76.8899805,90.6073104 70.9879811,90.4102757 C58.8242444,90.443607 50.726195,81.6941238 50.726195,70.0281461 C50.726195,58.3621684 58.8242444,49.4626939 70.9046678,49.4626939 C82.6685009,49.4626939 89.9834056,59.1287897 89.9834056,70.0281461 Z" id="Shape" fill="#FFCF00"></path>
                    <ellipse id="Oval" fill="#55D7C9" cx="17" cy="31.5" rx="17" ry="15.5"></ellipse>
                </g>
            </g>
        </g>
    </g>
</svg>